<?xml version="1.0" encoding="utf-8"?>
<svg xmlns="http://www.w3.org/2000/svg" xmlns:xlink="http://www.w3.org/1999/xlink" style="margin: auto; background: rgb(241, 242, 243); display: block; shape-rendering: auto;" width="200px" height="200px" viewBox="0 0 100 100" preserveAspectRatio="xMidYMid">
<g transform="rotate(0 50 50)">
  <rect x="45" y="32.5" rx="5" ry="12.5" width="10" height="25" fill="#bb45c2">
    <animate attributeName="opacity" values="1;0" keyTimes="0;1" dur="1s" begin="-0.8571428571428571s" repeatCount="indefinite"></animate>
  </rect>
</g><g transform="rotate(51.42857142857143 50 50)">
  <rect x="45" y="32.5" rx="5" ry="12.5" width="10" height="25" fill="#1d0e0b">
    <animate attributeName="opacity" values="1;0" keyTimes="0;1" dur="1s" begin="-0.7142857142857143s" repeatCount="indefinite"></animate>
  </rect>
</g><g transform="rotate(102.85714285714286 50 50)">
  <rect x="45" y="32.5" rx="5" ry="12.5" width="10" height="25" fill="#bb45c2">
    <animate attributeName="opacity" values="1;0" keyTimes="0;1" dur="1s" begin="-0.5714285714285714s" repeatCount="indefinite"></animate>
  </rect>
</g><g transform="rotate(154.28571428571428 50 50)">
  <rect x="45" y="32.5" rx="5" ry="12.5" width="10" height="25" fill="#1d0e0b">
    <animate attributeName="opacity" values="1;0" keyTimes="0;1" dur="1s" begin="-0.42857142857142855s" repeatCount="indefinite"></animate>
  </rect>
</g><g transform="rotate(205.71428571428572 50 50)">
  <rect x="45" y="32.5" rx="5" ry="12.5" width="10" height="25" fill="#bb45c2">
    <animate attributeName="opacity" values="1;0" keyTimes="0;1" dur="1s" begin="-0.2857142857142857s" repeatCount="indefinite"></animate>
  </rect>
</g><g transform="rotate(257.14285714285717 50 50)">
  <rect x="45" y="32.5" rx="5" ry="12.5" width="10" height="25" fill="#1d0e0b">
    <animate attributeName="opacity" values="1;0" keyTimes="0;1" dur="1s" begin="-0.14285714285714285s" repeatCount="indefinite"></animate>
  </rect>
</g><g transform="rotate(308.57142857142856 50 50)">
  <rect x="45" y="32.5" rx="5" ry="12.5" width="10" height="25" fill="#bb45c2">
    <animate attributeName="opacity" values="1;0" keyTimes="0;1" dur="1s" begin="0s" repeatCount="indefinite"></animate>
  </rect>
</g>
<!-- [ldio] generated by https://loading.io/ --></svg>